<?xml version="1.0" standalone="no"?>
<!DOCTYPE svg PUBLIC "-//W3C//DTD SVG 20010904//EN"
 "http://www.w3.org/TR/2001/REC-SVG-20010904/DTD/svg10.dtd">
<svg version="1.0" xmlns="http://www.w3.org/2000/svg"
 width="750.000000pt" height="738.000000pt" viewBox="0 0 750.000000 738.000000"
 preserveAspectRatio="xMidYMid meet">

<g transform="translate(0.000000,738.000000) scale(0.100000,-0.100000)"
fill="#000000" stroke="none">
<path d="M3008 4473 c-26 -30 -118 -197 -115 -208 2 -5 13 -11 24 -13 16 -2
38 20 97 102 42 57 76 109 76 114 0 25 -61 29 -82 5z"/>
<path d="M810 3795 l0 -635 450 0 450 0 0 125 0 125 -305 0 -306 0 3 138 3
137 278 3 278 2 -3 123 -3 122 -277 3 -278 2 0 120 0 120 300 0 300 0 0 125 0
125 -445 0 -445 0 0 -635z"/>
<path d="M1940 3795 l0 -635 400 0 400 0 0 125 0 125 -255 0 -255 0 0 510 0
510 -145 0 -145 0 0 -635z"/>
<path d="M3320 3795 l0 -636 353 3 352 3 67 33 c83 41 158 119 189 200 29 76
31 186 5 262 -25 72 -102 150 -174 176 l-52 20 44 31 c32 22 53 49 76 97 30
60 32 72 28 138 -8 127 -69 213 -194 274 l-59 29 -317 3 -318 3 0 -636z m531
387 c96 -38 106 -178 16 -232 -27 -17 -51 -20 -149 -20 l-118 0 0 129 c0 94 3
131 13 134 22 8 211 -1 238 -11z m86 -493 c109 -52 110 -201 2 -264 -30 -18
-52 -20 -184 -20 l-150 0 -3 153 -3 152 148 0 c129 0 152 -3 190 -21z"/>
<path d="M4510 3795 l0 -635 448 0 c247 0 451 2 453 4 2 2 3 59 1 125 l-3 121
-305 0 -305 0 3 138 3 137 278 3 277 2 0 125 0 125 -280 0 -280 0 0 120 0 120
300 0 300 0 0 125 0 125 -445 0 -445 0 0 -635z"/>
<path d="M5543 4423 c2 -5 110 -186 241 -403 l236 -396 0 -232 0 -232 140 0
140 0 0 234 0 233 240 399 239 399 -147 3 c-80 1 -151 1 -157 -2 -6 -2 -40
-53 -75 -112 -35 -60 -93 -158 -128 -219 -36 -60 -76 -128 -89 -149 l-25 -39
-18 29 c-89 147 -280 478 -280 485 0 5 -72 9 -161 9 -88 0 -158 -3 -156 -7z"/>
<path d="M1700 2540 c0 -98 3 -120 14 -120 11 0 16 15 18 53 3 50 4 52 33 52
29 0 30 -2 33 -52 2 -38 7 -53 18 -53 11 0 14 22 14 120 0 100 -2 120 -15 120
-12 0 -15 -13 -15 -56 l0 -55 -32 3 c-32 3 -33 4 -36 56 -2 37 -7 52 -18 52
-11 0 -14 -22 -14 -120z"/>
<path d="M1952 2588 c-12 -40 -28 -94 -36 -120 -12 -38 -12 -48 -2 -48 7 0 18
11 24 25 10 21 19 25 52 25 34 0 42 -4 50 -25 10 -26 30 -34 30 -12 0 6 -14
60 -32 120 -40 134 -55 140 -86 35z m54 -23 c19 -47 18 -62 -7 -70 -34 -11
-44 8 -29 59 7 26 14 46 17 46 2 0 11 -16 19 -35z"/>
<path d="M2150 2651 c0 -6 15 -11 33 -13 l32 -3 3 -97 3 -98 -36 0 c-19 0 -35
-4 -35 -10 0 -6 33 -10 80 -10 78 0 112 16 48 22 l-33 3 -1 85 c0 47 2 91 4
98 2 6 17 12 33 12 16 0 29 5 29 10 0 6 -33 10 -80 10 -44 0 -80 -4 -80 -9z"/>
<path d="M2390 2540 c0 -100 3 -120 15 -120 11 0 15 12 15 50 0 65 16 65 55 0
16 -28 35 -50 43 -50 14 0 14 0 -24 61 l-23 37 25 23 c29 27 32 78 6 102 -12
11 -36 17 -65 17 l-47 0 0 -120z m84 94 c19 -7 21 -55 4 -72 -7 -7 -22 -12
-35 -12 -21 0 -23 5 -23 45 0 47 12 55 54 39z"/>
<path d="M2870 2540 l0 -120 53 0 c29 0 58 5 65 12 8 8 12 46 12 103 0 110
-10 125 -83 125 l-47 0 0 -120z m88 92 c9 -6 12 -33 10 -98 l-3 -89 -32 -3
-33 -3 0 94 c0 51 3 97 7 100 9 9 35 8 51 -1z"/>
<path d="M3080 2540 l0 -120 65 0 c37 0 65 4 65 10 0 6 -23 10 -51 10 l-50 0
3 43 c3 41 4 42 41 45 50 4 48 22 -3 22 l-40 0 0 45 0 45 50 0 c28 0 50 5 50
10 0 6 -28 10 -65 10 l-65 0 0 -120z"/>
<path d="M3306 2647 c-13 -10 -17 -24 -14 -57 3 -43 5 -45 48 -60 33 -12 46
-21 48 -38 7 -46 -35 -67 -70 -35 -22 19 -37 9 -22 -15 7 -10 27 -18 51 -20
48 -4 67 15 67 65 0 39 -23 63 -61 63 -30 0 -49 35 -34 66 13 30 38 31 68 2
22 -21 23 -21 23 -2 0 11 -5 25 -12 32 -16 16 -70 15 -92 -1z"/>
<path d="M3490 2650 c0 -5 16 -10 35 -10 l35 0 0 -100 0 -100 -29 0 c-17 0
-33 -4 -36 -10 -4 -6 25 -10 80 -10 55 0 84 4 80 10 -3 6 -19 10 -36 10 l-29
0 0 100 0 100 35 0 c19 0 35 5 35 10 0 6 -35 10 -85 10 -50 0 -85 -4 -85 -10z"/>
<path d="M3749 2643 c-8 -9 -15 -48 -18 -95 -4 -100 11 -128 68 -128 46 0 58
13 61 60 4 66 2 70 -30 70 -34 0 -40 -15 -10 -23 22 -6 26 -36 10 -68 -12 -21
-40 -25 -58 -7 -16 16 -16 160 0 176 17 17 47 15 54 -3 8 -19 34 -20 34 0 0
34 -87 48 -111 18z"/>
<path d="M3940 2541 c0 -99 3 -121 15 -121 11 0 15 18 17 83 3 72 4 79 15 57
7 -14 19 -51 28 -82 12 -46 20 -58 35 -58 19 0 20 7 20 120 0 100 -2 120 -15
120 -12 0 -15 -16 -15 -87 0 -47 -3 -84 -6 -80 -3 3 -16 41 -29 84 -18 63 -26
79 -44 81 -20 3 -21 0 -21 -117z"/>
<path d="M4436 2638 c-35 -49 -12 -99 50 -112 23 -5 33 -14 36 -31 9 -47 -33
-75 -62 -40 -13 16 -40 20 -40 7 0 -19 39 -42 71 -42 45 0 59 15 59 60 0 41
-24 70 -56 70 -26 0 -44 19 -44 45 0 44 50 62 70 25 6 -11 15 -18 21 -15 27
17 -11 55 -56 55 -24 0 -39 -7 -49 -22z"/>
<path d="M4620 2650 c0 -5 14 -10 30 -10 l30 0 0 -110 c0 -91 3 -110 15 -110
12 0 15 19 15 110 l0 110 30 0 c17 0 30 5 30 10 0 6 -32 10 -75 10 -43 0 -75
-4 -75 -10z"/>
<path d="M4840 2552 c0 -121 5 -132 61 -132 61 0 69 16 69 136 0 85 -3 104
-15 104 -11 0 -15 -20 -17 -101 -3 -107 -14 -130 -52 -116 -13 5 -16 23 -16
112 0 87 -3 105 -15 105 -12 0 -15 -19 -15 -108z"/>
<path d="M5043 2543 l2 -118 52 -3 c72 -4 86 18 82 126 -5 99 -15 112 -85 112
l-53 0 2 -117z m95 85 c7 -7 12 -42 12 -89 0 -83 -11 -103 -52 -97 -22 3 -23
8 -26 87 -2 46 -1 90 2 98 7 16 48 17 64 1z"/>
<path d="M5250 2650 c0 -5 16 -10 35 -10 l35 0 0 -100 0 -100 -35 0 c-19 0
-35 -4 -35 -10 0 -6 35 -10 86 -10 54 0 83 4 79 10 -3 6 -19 10 -36 10 l-29 0
0 100 0 100 29 0 c17 0 33 5 36 10 4 6 -25 10 -79 10 -51 0 -86 -4 -86 -10z"/>
<path d="M5506 2638 c-24 -34 -22 -179 2 -201 22 -20 83 -22 100 -5 19 19 16
193 -4 212 -24 24 -80 20 -98 -6z m79 -98 c0 -83 -2 -95 -18 -98 -36 -7 -47
16 -47 97 0 82 10 104 45 99 18 -3 20 -10 20 -98z"/>
</g>
</svg>
